<svg width="29" height="32" viewBox="0 0 29 32" fill="none" xmlns="http://www.w3.org/2000/svg">
<path opacity="0.89" d="M13.6364 3.28641C13.9145 1.58399 14.0536 0.732784 14.3275 0.632107C14.4389 0.59118 14.5611 0.59118 14.6725 0.632106C14.9464 0.732784 15.0855 1.58399 15.3636 3.28641L16.277 8.87794C16.3675 9.43243 16.4128 9.70968 16.5788 9.83057C16.6492 9.88184 16.7317 9.91385 16.8183 9.92341C17.0223 9.94597 17.2427 9.7717 17.6833 9.42316L21.8047 6.16332C22.9986 5.219 23.5956 4.74684 23.8622 4.85016C23.9709 4.89229 24.0615 4.9711 24.1183 5.07295C24.2575 5.3227 23.8724 5.97922 23.1023 7.29227L19.9778 12.6197C19.7416 13.0224 19.6235 13.2238 19.6558 13.4053C19.6697 13.483 19.7017 13.5563 19.7492 13.6192C19.8604 13.7663 20.0884 13.8165 20.5443 13.9169L26.1211 15.1455C27.4105 15.4295 28.0552 15.5716 28.1476 15.834C28.1854 15.9414 28.1854 16.0586 28.1476 16.166C28.0552 16.4284 27.4105 16.5705 26.1211 16.8545L20.5443 18.0831C20.0884 18.1835 19.8604 18.2337 19.7492 18.3808C19.7017 18.4437 19.6697 18.517 19.6558 18.5947C19.6235 18.7762 19.7416 18.9776 19.9778 19.3803L23.1023 24.7077C23.8724 26.0208 24.2575 26.6773 24.1183 26.927C24.0615 27.0289 23.9709 27.1077 23.8622 27.1498C23.5956 27.2532 22.9986 26.781 21.8047 25.8367L17.6833 22.5768C17.2427 22.2283 17.0223 22.054 16.8183 22.0766C16.7317 22.0862 16.6492 22.1182 16.5788 22.1694C16.4128 22.2903 16.3675 22.5676 16.277 23.1221L15.3636 28.7136C15.0855 30.416 14.9464 31.2672 14.6725 31.3679C14.5611 31.4088 14.4389 31.4088 14.3275 31.3679C14.0536 31.2672 13.9145 30.416 13.6364 28.7136L12.723 23.1221C12.6325 22.5676 12.5872 22.2903 12.4212 22.1694C12.3509 22.1182 12.2683 22.0862 12.1818 22.0766C11.9777 22.054 11.7573 22.2283 11.3167 22.5768L7.19525 25.8367C6.00135 26.781 5.4044 27.2532 5.1378 27.1498C5.02907 27.1077 4.9385 27.0289 4.88173 26.927C4.74253 26.6773 5.12758 26.0208 5.89768 24.7077L9.02223 19.3803C9.2584 18.9776 9.37649 18.7762 9.34416 18.5947C9.33033 18.517 9.29833 18.4437 9.25076 18.3808C9.13956 18.2337 8.91161 18.1835 8.45572 18.0831L2.87888 16.8545C1.58951 16.5705 0.944825 16.4284 0.852446 16.166C0.814618 16.0586 0.814618 15.9414 0.852446 15.834C0.944825 15.5716 1.58951 15.4295 2.87888 15.1455L8.45572 13.9169C8.91161 13.8165 9.13956 13.7663 9.25076 13.6192C9.29833 13.5563 9.33033 13.483 9.34416 13.4053C9.37649 13.2238 9.2584 13.0224 9.02223 12.6197L5.89768 7.29227C5.12758 5.97922 4.74253 5.3227 4.88173 5.07295C4.9385 4.9711 5.02908 4.89229 5.1378 4.85016C5.4044 4.74684 6.00135 5.219 7.19526 6.16332L11.3167 9.42316C11.7573 9.7717 11.9777 9.94597 12.1818 9.92341C12.2683 9.91385 12.3509 9.88184 12.4212 9.83057C12.5872 9.70968 12.6325 9.43243 12.723 8.87794L13.6364 3.28641Z" fill="#A34D1C"/>
</svg>
